<?xml version="1.0" standalone="no"?>
<!DOCTYPE svg PUBLIC "-//W3C//DTD SVG 20010904//EN"
 "http://www.w3.org/TR/2001/REC-SVG-20010904/DTD/svg10.dtd">
<svg version="1.0" xmlns="http://www.w3.org/2000/svg"
 width="421.000000pt" height="421.000000pt" viewBox="0 0 421.000000 421.000000"
 preserveAspectRatio="xMidYMid meet">
<metadata>
Created by potrace 1.14, written by Peter Selinger 2001-2017
</metadata>
<g transform="translate(0.000000,421.000000) scale(0.100000,-0.100000)"
fill="#000000" stroke="none">
<path d="M2006 4064 c-414 -82 -742 -388 -863 -804 l-27 -95 -6 -705 c-5 -646
-6 -708 -22 -737 -10 -18 -18 -40 -18 -50 0 -10 -6 -28 -14 -39 -8 -11 -33
-63 -56 -115 -147 -337 -161 -463 -64 -609 27 -41 109 -84 215 -115 48 -13 59
-21 70 -47 28 -69 134 -215 212 -292 228 -227 515 -337 841 -324 437 19 817
289 981 697 77 194 75 153 75 1271 0 629 -4 1018 -10 1058 -37 224 -147 432
-319 603 -166 164 -348 261 -574 304 -98 19 -326 18 -421 -1z m445 -44 c211
-45 388 -145 553 -315 89 -92 147 -181 206 -319 88 -204 85 -164 85 -1256 0
-525 -3 -992 -8 -1037 -12 -140 -94 -352 -176 -458 -111 -143 -202 -231 -291
-283 -25 -15 -51 -32 -57 -38 -32 -31 -243 -112 -334 -129 -36 -7 -36 -6 -42
31 -4 21 -4 108 0 193 l6 156 46 2 c74 2 157 38 186 81 14 20 25 42 25 49 0 9
20 13 70 13 87 0 180 -31 180 -61 0 -17 7 -19 60 -19 l60 0 0 223 0 222 -28 2
c-49 5 -90 -7 -95 -26 -6 -25 -87 -51 -161 -51 -34 0 -108 9 -166 20 -58 11
-122 20 -142 20 l-38 0 0 45 c0 54 -29 50 261 31 118 -8 262 -18 320 -22 l106
-6 7 233 c3 129 9 327 13 442 l6 207 -21 0 c-12 0 -21 3 -21 8 3 20 -2 32 -16
32 -10 0 -15 10 -15 29 0 22 13 39 59 79 92 81 153 194 137 257 -4 14 -25 46
-46 69 -22 24 -40 48 -40 55 0 6 -9 16 -20 23 -11 7 -20 23 -20 36 0 29 -4 30
-132 34 l-107 3 -33 -58 c-29 -52 -35 -57 -58 -52 -14 4 -76 8 -137 8 l-113 2
0 -38 c0 -25 4 -36 11 -32 17 11 177 6 204 -7 18 -8 24 -16 19 -27 -25 -59
-27 -90 -10 -167 10 -43 20 -105 23 -137 4 -53 3 -59 -16 -64 -14 -3 -21 -13
-21 -29 0 -15 -6 -24 -15 -24 -8 0 -15 -8 -15 -18 0 -11 -9 -27 -20 -37 -15
-13 -20 -31 -20 -67 0 -26 5 -48 10 -48 19 0 11 -119 -11 -171 -12 -27 -25
-48 -28 -47 -3 2 -59 30 -123 62 l-118 60 0 145 c0 214 -26 304 -100 348 -23
13 -30 25 -30 48 l0 30 101 17 c55 9 103 19 106 21 11 12 45 167 46 217 1 37
8 61 20 75 24 26 19 53 -28 179 -20 54 -34 104 -31 112 4 10 23 14 66 14 l60
0 0 34 c0 21 -5 34 -12 33 -7 0 -34 1 -60 1 l-48 2 0 70 c0 122 -48 231 -132
301 -54 45 -87 62 -182 94 -73 25 -78 25 -122 10 -24 -8 -51 -15 -58 -15 -7 0
-45 -16 -84 -35 -74 -37 -148 -108 -182 -174 -20 -41 -40 -135 -40 -193 l0
-38 -60 0 -60 0 0 -30 c0 -29 2 -30 48 -32 26 0 53 -1 60 -1 9 1 11 -23 6
-106 -6 -95 -4 -115 19 -192 14 -48 30 -95 35 -106 14 -25 -6 -113 -24 -106
-15 5 -22 -3 -103 -114 -56 -76 -65 -84 -149 -126 -146 -73 -173 -98 -238
-215 -31 -56 -61 -105 -66 -108 -6 -4 -8 223 -5 627 4 678 3 659 57 819 21 62
95 220 108 230 4 3 14 19 23 35 24 43 123 151 198 215 76 65 143 109 228 150
106 51 271 99 293 85 6 -4 17 -2 23 4 14 11 148 18 237 12 30 -2 94 -11 141
-21z m-663 -1105 c45 -7 54 -20 21 -30 -32 -11 -50 -63 -38 -114 5 -24 16 -55
23 -70 7 -14 16 -49 19 -77 5 -48 4 -52 -19 -63 -14 -6 -29 -11 -34 -11 -13 0
-50 124 -57 191 -3 31 -2 87 2 123 5 56 9 66 23 62 10 -2 36 -8 60 -11z m245
-51 c18 -6 18 -7 -1 -27 -11 -12 -25 -32 -31 -44 -17 -33 -24 -29 -44 27 -10
28 -22 50 -27 50 -6 0 -10 4 -10 9 0 8 70 -1 113 -15z m-120 -22 c9 -8 20 -33
23 -54 4 -21 10 -38 15 -38 5 0 6 -7 3 -15 -12 -30 38 0 65 40 14 21 38 47 53
58 l26 20 189 -39 188 -39 22 -60 c12 -33 22 -66 22 -72 1 -18 -58 -46 -85
-40 -15 3 -24 0 -24 -9 0 -18 -121 -84 -173 -95 -23 -5 -52 -11 -64 -14 -24
-6 -83 -52 -83 -66 0 -5 11 -4 26 1 14 6 76 10 137 10 63 0 136 6 166 14 52
13 52 13 47 -8 -2 -11 -8 -38 -11 -58 -8 -44 -22 -49 -165 -68 -141 -19 -237
5 -297 73 -40 46 -62 58 -35 19 54 -76 126 -112 221 -112 l51 0 0 -40 0 -40
-77 6 c-59 4 -96 14 -151 40 -90 41 -262 142 -262 153 0 4 7 30 15 58 12 40
23 56 50 72 19 11 35 25 35 31 0 5 7 10 15 10 8 0 15 4 15 9 0 5 -7 11 -15 15
-9 3 -15 18 -15 35 0 17 -9 54 -21 82 -26 67 -22 119 9 135 27 13 59 8 85 -14z
m1157 -296 c0 -15 -18 -20 -102 -32 -47 -6 -48 -6 -48 20 0 26 1 26 75 26 58
0 75 -3 75 -14z m-180 -26 c0 -13 -7 -20 -20 -20 -18 0 -19 3 -10 20 6 11 15
20 20 20 6 0 10 -9 10 -20z m220 -29 c0 -13 -252 -43 -264 -31 -6 6 -6 10 -1
11 6 0 62 8 125 18 111 16 140 17 140 2z m-314 -62 c54 -43 73 -52 124 -60 43
-8 43 -8 -12 -5 -45 2 -64 8 -93 32 -20 16 -49 37 -63 46 -18 12 -22 18 -11
18 9 0 34 -14 55 -31z m235 -3 c-13 -14 -38 -26 -62 -29 -42 -5 -109 8 -109
22 0 7 106 26 169 30 l24 1 -22 -24z m94 -2 c-16 -9 -48 -36 -71 -61 -30 -34
-46 -44 -64 -41 -24 3 -23 4 15 43 57 57 85 75 120 75 l30 -1 -30 -15z m63
-36 c19 -19 14 -54 -14 -111 -39 -76 -62 -105 -105 -132 -42 -27 -69 -70 -69
-110 l0 -26 -80 2 c-120 3 -127 5 -122 40 4 25 9 29 34 29 l30 0 -31 26 c-40
33 -65 115 -59 195 2 32 7 61 10 64 8 8 88 -33 88 -45 0 -5 9 -11 19 -15 11
-3 28 -24 38 -45 20 -44 33 -51 33 -17 0 22 -24 65 -44 79 -7 5 -7 8 2 8 6 0
21 -9 32 -20 11 -11 27 -20 36 -20 14 0 14 -3 4 -16 -22 -26 9 -48 55 -40 43
8 108 68 80 74 -9 2 -27 -8 -40 -22 -21 -23 -65 -36 -65 -20 0 12 72 104 93
119 26 18 59 19 75 3z m-1498 -233 c130 -73 199 -105 255 -118 l55 -12 -26
-28 c-14 -16 -24 -30 -23 -31 2 -2 24 -16 49 -33 94 -64 189 -169 234 -259 37
-75 75 -299 92 -545 l7 -97 -39 -6 c-22 -4 -78 -10 -126 -13 -75 -4 -88 -3
-88 11 0 9 -13 18 -35 22 -19 3 -35 10 -35 14 0 4 -11 12 -25 18 -14 6 -25 20
-25 30 0 52 -61 79 -106 47 -19 -13 -29 -12 -96 9 -41 13 -107 29 -147 35 -68
11 -118 27 -149 49 -13 9 9 79 62 192 28 60 37 155 14 148 -7 -3 -16 -24 -19
-49 -3 -24 -14 -62 -26 -84 -30 -58 -93 -224 -93 -246 0 -10 7 -19 15 -19 8 0
15 7 15 15 0 19 3 19 46 -4 20 -11 68 -25 107 -32 80 -13 234 -56 240 -67 3
-4 -3 -41 -13 -82 -31 -131 -31 -139 -12 -148 31 -17 90 -21 101 -8 5 6 17 48
26 91 18 85 21 95 35 95 9 0 6 -12 -41 -208 l-32 -133 -36 5 c-20 3 -116 15
-213 26 -280 31 -522 87 -623 143 -29 17 -48 39 -73 87 -33 64 -34 67 -29 160
4 83 11 110 50 210 60 151 113 266 126 275 6 3 11 17 11 29 0 28 46 129 110
241 25 45 53 97 64 117 32 62 76 96 221 167 49 25 88 38 100 34 11 -3 54 -25
95 -48z m1338 -170 c6 -3 12 -9 12 -15 0 -6 -50 -10 -140 -10 -129 0 -140 1
-140 18 0 18 9 19 128 15 70 -3 133 -6 140 -8z m28 -292 c-3 -131 -9 -311 -13
-401 l-6 -163 -76 5 c-42 3 -159 10 -261 16 -102 6 -213 13 -247 16 l-63 6 0
221 c0 122 3 231 6 243 5 20 11 18 115 -33 l110 -55 -5 -36 c-3 -20 -8 -67
-12 -104 -5 -57 -4 -68 9 -68 11 0 17 17 22 73 9 94 53 217 78 217 16 0 17 5
11 33 -8 35 -9 44 -6 95 l2 33 93 -1 c50 -1 100 1 110 5 24 10 37 37 32 66 -8
43 -29 52 -132 59 -90 6 -85 7 71 8 l169 2 -7 -237z m-141 181 c14 -14 14 -19
2 -37 -12 -18 -22 -20 -112 -18 -55 1 -100 3 -101 4 -1 1 -5 17 -9 35 l-7 32
105 0 c84 0 109 -3 122 -16z m-989 -749 c3 -8 -4 -58 -16 -112 -32 -145 -27
-135 -63 -127 -18 3 -33 7 -35 9 -3 2 44 208 53 233 6 17 54 15 61 -3z m1064
-276 l0 -190 -27 3 -28 3 -3 188 -2 187 30 0 30 0 0 -191z m-958 171 c12 0 7
-55 -18 -190 l-16 -90 -35 0 c-30 0 -35 3 -30 20 3 11 17 76 33 145 21 98 30
125 41 120 8 -3 19 -5 25 -5z m473 -25 c54 -8 103 -19 107 -23 5 -5 -1 -17
-12 -27 -18 -16 -35 -19 -121 -17 -54 2 -99 0 -99 -3 0 -10 42 -88 62 -118 23
-32 83 -73 122 -83 32 -8 33 -20 4 -30 -34 -11 -76 -6 -126 16 -57 26 -72 25
-39 0 57 -45 135 -62 178 -40 27 15 25 -5 -3 -24 -38 -27 -116 -20 -184 14
-32 16 -61 30 -63 30 -13 0 49 -55 79 -71 l35 -18 -31 -1 c-30 0 -124 61 -124
81 0 5 -5 9 -10 9 -6 0 -3 -12 7 -27 l17 -28 -30 25 c-16 13 -47 43 -69 66
-36 37 -47 42 -102 48 -73 8 -71 2 -47 124 l17 82 81 -2 c49 -1 107 4 146 14
82 21 85 21 205 3z m395 -128 c0 -67 -4 -128 -8 -134 -6 -9 -17 -10 -45 -2
l-37 10 0 109 0 110 38 19 c20 10 40 17 45 14 4 -2 7 -59 7 -126z m-126 87 c3
-9 6 -61 6 -116 l0 -101 -102 5 c-112 5 -160 24 -202 75 -22 27 -45 64 -46 73
0 3 39 5 86 5 85 1 87 1 113 32 22 26 35 32 76 36 28 2 53 4 56 5 4 1 10 -5
13 -14z m-1379 -219 c50 -8 173 -24 275 -35 102 -12 199 -25 217 -29 28 -8 32
-7 35 12 3 19 10 22 48 22 34 0 48 5 57 20 11 18 12 18 13 3 0 -15 10 -18 66
-18 l66 0 59 -54 c32 -30 72 -57 89 -61 l30 -7 -2 -206 -3 -207 -67 -3 -68 -3
0 136 c0 113 2 135 15 135 12 0 15 17 15 89 l0 90 -320 1 -320 0 0 -85 c0 -67
3 -87 15 -91 11 -4 15 -21 15 -55 l0 -49 -42 31 c-100 72 -287 277 -288 315 0
5 -9 20 -20 34 -26 33 -25 41 3 35 12 -2 63 -11 112 -20z m815 -208 l0 -54
-129 -13 c-122 -12 -226 -11 -388 6 l-63 7 0 53 0 54 290 0 290 0 0 -53z
m-385 -107 c77 -8 129 -8 228 3 l127 13 0 -132 c0 -73 -4 -135 -10 -139 -15
-10 -201 23 -275 48 -38 13 -107 41 -152 62 l-83 38 0 64 0 64 33 -5 c17 -3
77 -10 132 -16z"/>
<path d="M2442 3448 c6 -18 28 -21 28 -4 0 9 -7 16 -16 16 -9 0 -14 -5 -12
-12z"/>
<path d="M1682 3398 c6 -18 28 -21 28 -4 0 9 -7 16 -16 16 -9 0 -14 -5 -12
-12z"/>
<path d="M3090 3236 c0 -9 7 -16 16 -16 9 0 14 5 12 12 -6 18 -28 21 -28 4z"/>
<path d="M1210 2245 c0 -8 7 -15 15 -15 8 0 15 7 15 15 0 8 -7 15 -15 15 -8 0
-15 -7 -15 -15z"/>
<path d="M3225 2190 c-4 -6 -3 -16 3 -22 6 -6 12 -6 17 2 4 6 3 16 -3 22 -6 6
-12 6 -17 -2z"/>
<path d="M1832 2827 c-9 -10 -4 -12 24 -9 31 4 35 1 49 -29 l14 -34 1 31 c0
16 -5 35 -12 42 -16 16 -63 15 -76 -1z"/>
<path d="M1974 2715 c-18 -15 -18 -15 5 -13 14 2 26 9 29 16 5 17 -10 15 -34
-3z"/>
<path d="M1370 2042 c0 -5 17 -18 38 -30 65 -36 142 -135 190 -242 l11 -25 0
30 c1 34 -48 143 -85 193 -36 46 -154 103 -154 74z"/>
<path d="M2835 940 c3 -5 8 -10 11 -10 2 0 4 5 4 10 0 6 -5 10 -11 10 -5 0 -7
-4 -4 -10z"/>
</g>
</svg>
